<svg xmlns="http://www.w3.org/2000/svg" width="64" height="64" viewBox="0 0 64 64">
  <path fill="#38BDF8" d="M32,16c-7.2,0-11.7,3.6-13.5,10.8c2.7-3.6,5.85-4.95,9.45-4.05c2.054,0.514,3.522,2.004,5.147,3.653 C35.744,29.09,38.808,32,45.5,32c7.2,0,11.7-3.6,13.5-10.8c-2.7,3.6-5.85,4.95-9.45,4.05c-2.054-0.514-3.522-2.004-5.147-3.653 C41.756,18.91,38.692,16,32,16zM18.5,32c-7.2,0-11.7,3.6-13.5,10.8c2.7-3.6,5.85-4.95,9.45-4.05c2.054,0.514,3.522,2.004,5.147,3.653 C22.244,45.09,25.308,48,32,48c7.2,0,11.7-3.6,13.5-10.8c-2.7,3.6-5.85,4.95-9.45,4.05c-2.054-0.514-3.522-2.004-5.147-3.653 C28.256,34.91,25.192,32,18.5,32z"/>
</svg>